<svg width="50" height="44" viewBox="0 0 282 274" fill="none" xmlns="http://www.w3.org/2000/svg">
<rect x="0.5" y="0.5" width="281" height="273" fill="#111111" stroke="url(#paint0_linear)"/>
<path d="M189.989 102.619C154.489 145.619 167.603 161.119 139.989 161.119C112.375 161.119 124.489 145.619 89.989 102.619C76.4887 66.6186 135.989 79.6186 139.989 119.619C145.489 80.6186 210.489 75.1186 189.989 102.619Z" fill="#12FF38"/>
<path d="M154.489 79.6062C154.489 86.8727 148.668 95 141.489 95C134.309 95 128.489 86.8727 128.489 79.6062C128.489 72.3398 140.449 73.554 141.489 84.0796C142.919 73.8171 154.489 72.3398 154.489 79.6062Z" fill="white"/>
<path d="M62.973 202.085C38.973 186.485 92.973 181.085 124.473 183.585C139.473 186.085 176.973 179.085 212.473 193.585C256.385 211.521 92.973 221.585 62.973 202.085Z" fill="white"/>
<path d="M63 197.5C39 181.9 93 176.5 124.5 179C139.5 181.5 177 174.5 212.5 189C256.412 206.936 93 217 63 197.5Z" fill="#BFBFBF"/>
<path d="M104.989 169.119C104.989 166.909 106.78 165.119 108.989 165.119H172.989C175.198 165.119 176.989 166.909 176.989 169.119V181.619C176.989 190.731 169.601 198.119 160.489 198.119H121.489C112.376 198.119 104.989 190.731 104.989 181.619V169.119Z" fill="white"/>
<defs>
<linearGradient id="paint0_linear" x1="282" y1="0" x2="-5.71021e-06" y2="274" gradientUnits="userSpaceOnUse">
<stop stop-color="#12FF38"/>
<stop offset="1" stop-color="#FF185E"/>
</linearGradient>
</defs>
</svg>
